<svg width="659" height="128" viewBox="0 0 659 128" fill="none" xmlns="http://www.w3.org/2000/svg">
<g clip-path="url(#clip0_1_288)">
<path d="M212.366 68.8616C212.366 60.7811 210.377 54.5654 206.402 50.2144C202.426 45.8633 197.125 43.6878 190.499 43.6878C186.789 43.6878 183.873 43.821 181.752 44.0874C179.72 44.3538 178.086 44.6646 176.849 45.0198V88.7076C178.351 89.9508 180.515 91.1495 183.343 92.3039C186.17 93.4582 189.262 94.0354 192.619 94.0354C196.153 94.0354 199.158 93.4138 201.631 92.1706C204.193 90.8387 206.27 89.0628 207.859 86.8429C209.45 84.5342 210.598 81.8703 211.305 78.8512C212.011 75.7433 212.366 72.4135 212.366 68.8616ZM225.219 68.8616C225.219 74.1006 224.513 78.94 223.099 83.3798C221.775 87.8197 219.786 91.6378 217.136 94.8345C214.486 98.0312 211.217 100.517 207.329 102.293C203.53 104.069 199.158 104.957 194.209 104.957C190.234 104.957 186.701 104.425 183.608 103.359C180.603 102.293 178.351 101.272 176.849 100.296V128H164.525V36.2289C167.44 35.5185 171.063 34.7638 175.391 33.9646C179.809 33.0767 184.889 32.6327 190.632 32.6327C195.933 32.6327 200.703 33.4762 204.944 35.1634C209.185 36.8505 212.807 39.248 215.81 42.3559C218.815 45.4638 221.112 49.2819 222.702 53.8106C224.381 58.2504 225.219 63.2674 225.219 68.8616Z" fill="white"/>
<path d="M262.11 104.691C254.513 104.513 249.123 102.871 245.942 99.7627C242.762 96.6549 241.172 91.8154 241.172 85.2446V2.13111L253.497 0V83.2466C253.497 85.2889 253.674 86.9761 254.027 88.308C254.38 89.64 254.954 90.7055 255.749 91.5047C256.545 92.3039 257.605 92.9254 258.93 93.3694C260.255 93.7246 261.89 94.0354 263.834 94.3018L262.11 104.691Z" fill="white"/>
<path d="M299.871 94.435C302.787 94.435 305.349 94.3906 307.557 94.3018C309.854 94.1242 311.754 93.8578 313.255 93.5026V72.8575C312.372 72.4135 310.915 72.0583 308.883 71.7919C306.939 71.4367 304.554 71.2591 301.726 71.2591C299.871 71.2591 297.883 71.3923 295.763 71.6587C293.731 71.925 291.831 72.5023 290.065 73.3902C288.386 74.1894 286.972 75.3438 285.823 76.8532C284.675 78.274 284.101 80.1832 284.101 82.5807C284.101 87.0205 285.515 90.1283 288.341 91.9042C291.169 93.5914 295.012 94.435 299.871 94.435ZM298.811 32.3663C303.758 32.3663 307.911 33.0322 311.268 34.3642C314.714 35.6073 317.452 37.4276 319.484 39.8251C321.605 42.1338 323.107 44.931 323.99 48.2164C324.874 51.4131 325.316 54.9649 325.316 58.872V102.16C324.255 102.338 322.754 102.604 320.81 102.959C318.955 103.226 316.834 103.492 314.449 103.759C312.063 104.025 309.457 104.247 306.63 104.425C303.891 104.691 301.153 104.824 298.413 104.824C294.526 104.824 290.948 104.425 287.679 103.625C284.41 102.826 281.583 101.583 279.197 99.896C276.812 98.12 274.957 95.8113 273.631 92.9698C272.307 90.1283 271.644 86.7097 271.644 82.7138C271.644 78.8955 272.395 75.6102 273.897 72.8575C275.487 70.1048 277.607 67.8848 280.258 66.1977C282.908 64.5106 286.001 63.2674 289.534 62.4682C293.068 61.6691 296.779 61.2695 300.667 61.2695C301.903 61.2695 303.185 61.3583 304.509 61.5359C305.835 61.6247 307.071 61.8023 308.22 62.0687C309.457 62.2463 310.517 62.4239 311.401 62.6015C312.284 62.7791 312.902 62.9122 313.255 63.001V59.5379C313.255 57.4956 313.035 55.4977 312.594 53.5442C312.151 51.5019 311.356 49.7259 310.207 48.2164C309.059 46.618 307.469 45.375 305.437 44.487C303.493 43.5103 300.931 43.0218 297.75 43.0218C293.686 43.0218 290.109 43.3327 287.017 43.9542C284.013 44.487 281.759 45.0641 280.258 45.6857L278.801 35.4297C280.39 34.7194 283.041 34.0534 286.751 33.4319C290.462 32.7215 294.482 32.3663 298.811 32.3663Z" fill="white"/>
<path d="M356.187 34.0978H382.295V44.4869H356.187V76.4537C356.187 79.9168 356.452 82.8026 356.983 85.1113C357.513 87.3312 358.307 89.1072 359.368 90.439C360.428 91.6822 361.753 92.5703 363.344 93.1029C364.934 93.6357 366.79 93.9021 368.91 93.9021C372.62 93.9021 375.58 93.5026 377.788 92.7034C380.086 91.8154 381.676 91.1939 382.56 90.8387L384.945 101.095C383.708 101.716 381.544 102.471 378.451 103.359C375.359 104.336 371.825 104.824 367.849 104.824C363.167 104.824 359.28 104.247 356.187 103.093C353.184 101.849 350.754 100.029 348.898 97.6316C347.043 95.2341 345.718 92.3038 344.923 88.8408C344.216 85.2889 343.863 81.2043 343.863 76.5868V14.7845L356.187 12.6534V34.0978Z" fill="white"/>
<path d="M420.175 94.435C423.09 94.435 425.653 94.3906 427.862 94.3018C430.159 94.1242 432.058 93.8578 433.56 93.5026V72.8575C432.677 72.4135 431.218 72.0583 429.186 71.7919C427.244 71.4367 424.858 71.2591 422.031 71.2591C420.175 71.2591 418.188 71.3923 416.068 71.6587C414.036 71.925 412.136 72.5023 410.369 73.3902C408.69 74.1894 407.277 75.3438 406.128 76.8532C404.98 78.274 404.405 80.1832 404.405 82.5807C404.405 87.0205 405.818 90.1283 408.646 91.9042C411.473 93.5914 415.317 94.435 420.175 94.435ZM419.116 32.3663C424.063 32.3663 428.215 33.0322 431.573 34.3642C435.018 35.6073 437.757 37.4276 439.789 39.8251C441.909 42.1338 443.412 44.931 444.295 48.2164C445.178 51.4131 445.62 54.9649 445.62 58.872V102.16C444.56 102.338 443.057 102.604 441.114 102.959C439.258 103.226 437.138 103.492 434.753 103.759C432.367 104.025 429.761 104.247 426.934 104.425C424.196 104.691 421.456 104.824 418.718 104.824C414.83 104.824 411.253 104.425 407.983 103.625C404.714 102.826 401.887 101.583 399.502 99.896C397.117 98.12 395.261 95.8113 393.936 92.9698C392.61 90.1283 391.948 86.7097 391.948 82.7138C391.948 78.8955 392.7 75.6102 394.201 72.8575C395.791 70.1048 397.912 67.8848 400.562 66.1977C403.213 64.5106 406.305 63.2674 409.839 62.4682C413.373 61.6691 417.084 61.2695 420.97 61.2695C422.207 61.2695 423.488 61.3583 424.814 61.5359C426.138 61.6247 427.376 61.8023 428.525 62.0687C429.761 62.2463 430.822 62.4239 431.705 62.6015C432.589 62.7791 433.207 62.9122 433.56 63.001V59.5379C433.56 57.4956 433.34 55.4977 432.897 53.5442C432.456 51.5019 431.661 49.7259 430.512 48.2164C429.364 46.618 427.774 45.375 425.742 44.487C423.798 43.5103 421.236 43.0218 418.055 43.0218C413.991 43.0218 410.413 43.3327 407.321 43.9542C404.317 44.487 402.064 45.0641 400.562 45.6857L399.104 35.4297C400.695 34.7194 403.345 34.0534 407.056 33.4319C410.766 32.7215 414.786 32.3663 419.116 32.3663Z" fill="white"/>
<path d="M464.962 36.0958C467.79 35.3854 471.545 34.6306 476.227 33.8314C480.91 33.0322 486.299 32.6327 492.395 32.6327C497.873 32.6327 502.423 33.4319 506.044 35.0302C509.667 36.5398 512.538 38.7152 514.658 41.5567C516.867 44.3094 518.414 47.6393 519.297 51.5463C520.18 55.4534 520.623 59.76 520.623 64.4662V103.359H508.297V67.1301C508.297 62.8679 507.988 59.2272 507.37 56.2081C506.84 53.189 505.912 50.7471 504.587 48.8824C503.262 47.0177 501.495 45.6857 499.286 44.8866C497.078 43.9986 494.338 43.5546 491.07 43.5546C489.744 43.5546 488.375 43.599 486.961 43.6878C485.547 43.7766 484.178 43.9098 482.854 44.0874C481.616 44.1762 480.467 44.3094 479.408 44.487C478.435 44.6646 477.729 44.7978 477.287 44.8866V103.359H464.962V36.0958Z" fill="white"/>
<path d="M594.798 101.361C591.97 102.071 588.216 102.826 583.534 103.625C578.94 104.425 573.594 104.824 567.498 104.824C562.198 104.824 557.736 104.069 554.113 102.56C550.492 100.961 547.576 98.7415 545.367 95.9001C543.158 93.0586 541.568 89.7287 540.596 85.9105C539.624 82.0034 539.138 77.6967 539.138 72.9906V34.0978H551.463V70.3267C551.463 78.7624 552.789 84.8005 555.439 88.4412C558.089 92.0818 562.551 93.9021 568.823 93.9021C570.149 93.9021 571.518 93.8578 572.932 93.769C574.345 93.6802 575.671 93.5914 576.908 93.5026C578.144 93.325 579.248 93.1917 580.221 93.1029C581.28 92.9253 582.031 92.7478 582.473 92.5702V34.0978H594.798V101.361Z" fill="white"/>
<path d="M630.94 94.435C635.975 94.435 639.686 93.769 642.071 92.437C644.546 91.1051 645.782 88.9739 645.782 86.0436C645.782 83.0247 644.589 80.6271 642.204 78.8512C639.819 77.0753 635.887 75.0774 630.409 72.8575C627.759 71.7919 625.197 70.7263 622.723 69.6608C620.338 68.5064 618.262 67.1745 616.494 65.6649C614.727 64.1554 613.314 62.3351 612.254 60.204C611.194 58.0728 610.663 55.4534 610.663 52.3455C610.663 46.2185 612.917 41.3791 617.422 37.8273C621.928 34.1866 628.068 32.3663 635.843 32.3663C637.787 32.3663 639.731 32.4994 641.674 32.7658C643.618 32.9434 645.429 33.2098 647.108 33.565C648.786 33.8314 650.244 34.1422 651.48 34.4974C652.806 34.8526 653.822 35.1634 654.528 35.4297L652.276 46.0854C650.95 45.375 648.875 44.6646 646.047 43.9542C643.22 43.1551 639.819 42.7554 635.843 42.7554C632.397 42.7554 629.394 43.4658 626.831 44.8866C624.269 46.2185 622.988 48.3496 622.988 51.2799C622.988 52.7895 623.253 54.1214 623.783 55.2758C624.402 56.43 625.285 57.4956 626.434 58.4724C627.67 59.3603 629.173 60.204 630.94 61.0031C632.707 61.8023 634.827 62.6458 637.301 63.5338C640.57 64.7769 643.485 66.0201 646.047 67.2633C648.61 68.4176 650.774 69.7939 652.541 71.3923C654.396 72.9906 655.81 74.9441 656.781 77.2529C657.754 79.4728 658.239 82.2255 658.239 85.511C658.239 91.9042 655.854 96.7436 651.083 100.029C646.4 103.315 639.686 104.957 630.94 104.957C624.844 104.957 620.072 104.425 616.627 103.359C613.181 102.382 610.84 101.627 609.604 101.095L611.856 90.4391C613.27 90.9719 615.523 91.7711 618.615 92.8367C621.707 93.9022 625.815 94.435 630.94 94.435Z" fill="white"/>
<path d="M104.015 0.265517C104.412 0.531032 104.678 0.796549 104.943 1.06206C117.277 18.5862 127.621 38.2343 127.621 64.2549C127.621 90.4082 116.879 110.056 104.943 126.519C104.545 126.917 104.412 127.315 103.882 127.713C103.351 128.112 102.291 127.978 102.291 127.978H90.7528C90.7528 127.978 90.355 127.978 90.2224 127.846C90.0897 127.581 90.2223 127.448 90.355 127.315C94.9966 118.022 99.6382 108.596 103.086 97.9754C106.402 87.8858 109.717 76.8669 109.982 63.9894C110.38 49.917 108.391 41.4205 105.606 32.3929C101.362 18.8517 95.3944 8.09824 90.6202 1.06206C90.2223 0.531032 90.2223 0.398274 90.355 0.132758C90.6202 0 91.0181 0 91.0181 0L102.423 0C102.423 0 103.617 0 104.015 0.265517Z" fill="#FFEC40"/>
<path d="M94.7314 23.8969C93.9358 21.9055 85.1831 2.39003 84.9178 1.859C84.7851 1.59348 84.6526 1.72625 84.52 1.72625C84.3873 1.859 84.2547 1.99176 84.3873 2.5228C85.1831 9.69172 85.4482 20.1796 83.1938 32.1279C81.735 39.9605 79.8784 47.1295 73.9106 57.7501C68.6059 67.3087 61.7098 74.3449 55.2117 80.7172C48.4481 87.3552 41.1542 92.6655 33.9929 97.8431C33.8603 97.9759 33.7277 97.9759 33.7277 98.2413C33.7277 98.3741 34.1255 98.6396 34.1255 98.6396L42.8783 103.286C42.8783 103.286 43.6739 103.684 44.2045 103.684C44.7349 103.552 45.0001 103.419 45.398 103.286C61.0468 95.4535 76.8281 84.9656 87.3049 65.1845C93.4053 53.6346 96.7207 42.2175 96.4554 31.1985C96.1903 28.0123 95.3945 25.6227 94.7314 23.8969Z" fill="#F9BC12"/>
<path d="M78.4195 22.4369C78.5522 20.7111 78.9501 3.45249 78.9501 3.05422C78.9501 2.65594 78.8175 2.65594 78.6848 2.65594C78.5522 2.65594 78.4195 2.78871 78.287 3.18698C76.4303 8.63006 72.8497 16.33 67.1472 24.2955C63.3013 29.4731 59.4553 34.1196 51.4984 39.6954C44.337 44.7402 36.7778 47.5282 29.8818 49.785C22.5879 52.1747 15.5592 53.6351 8.39785 54.8299C8.26523 54.8299 8.13262 54.8299 8 54.9626C8 55.0954 8.13262 55.3609 8.13262 55.3609L12.9069 61.7332C12.9069 61.7332 13.3047 62.3971 13.7025 62.5298C14.1003 62.6626 14.3656 62.6626 14.7634 62.6626C28.8208 62.5298 44.0718 60.4057 58.5271 49.6523C67.0145 43.4127 73.3801 36.2438 76.9608 28.1455C78.0217 25.8887 78.287 23.8972 78.4195 22.4369Z" fill="#F9BC12"/>
</g>
<defs>
<clipPath id="clip0_1_288">
<rect width="658.286" height="128" fill="white"/>
</clipPath>
</defs>
</svg>
