<svg xmlns="http://www.w3.org/2000/svg" xmlns:xlink="http://www.w3.org/1999/xlink" viewBox="0 0 1143.77 1202.99"><defs><style>.cls-1{fill:none;}.cls-2{clip-path:url(#clip-path);}.cls-3{fill:url(#Degradado_sin_nombre_4);}.cls-4{clip-path:url(#clip-path-2);}.cls-5{fill:url(#Degradado_sin_nombre_4-2);}</style><clipPath id="clip-path" transform="translate(58.39 91.09)"><path class="cls-1" d="M603.39,515.5,497.11,612a6.35,6.35,0,0,0-.52,9l224,252.55c14.31,18.31,36.57,28,59.13,28a76.1,76.1,0,0,0,43.08-13.18l11.49-7.86c32.55-22.29,39.66-65.21,15.86-95.68l-236.3-268.8A7.45,7.45,0,0,0,603.39,515.5Z"/></clipPath><linearGradient id="Degradado_sin_nombre_4" x1="1158.57" y1="1188.18" x2="-14.81" y2="14.81" gradientUnits="userSpaceOnUse"><stop offset="0.3" stop-color="#f98d51"/><stop offset="0.45" stop-color="#ff6047"/><stop offset="0.77" stop-color="#0062ff"/></linearGradient><clipPath id="clip-path-2" transform="translate(58.39 91.09)"><path class="cls-1" d="M785,0H480.15C466.7,0,455.8,9.82,455.8,21.93V74.61c0,23.21,20.9,42,46.68,42H785c81.14,0,146.92,59.22,146.92,132.28V812.56c0,73.05-65.78,132.28-146.92,132.28H276.47c-81.14,0-146.92-59.23-146.92-132.28V248.92c0-55.1,37.43-102.28,90.62-122.18-.07,1.22-.21,2.43-.21,3.66V814.93c0,39.91,35.94,72.26,80.26,72.26s80.26-32.35,80.26-72.26V688.24a6.11,6.11,0,0,1,2.17-4.61L835.31,289.69c28.52-25.67,28.52-67.44,0-93.12l-10.07-9.07c-28.52-25.68-74.92-25.67-103.33-.09L392.55,474.05c-4.52,3.94-12.07,1.05-12.07-4.61L380.57,30c0-16.54-14.89-30-33.28-30H276.47C123.78,0,0,111.44,0,248.92V812.56C0,950,123.78,1061.48,276.47,1061.48H785c152.69,0,276.47-111.45,276.47-248.92V248.92C1061.48,111.44,937.7,0,785,0Z"/></clipPath><linearGradient id="Degradado_sin_nombre_4-2" x1="1147.1" y1="1177.49" x2="-3.34" y2="27.05" xlink:href="#Degradado_sin_nombre_4"/></defs><g id="Capa_2" data-name="Capa 2"><g id="Capa_1-2" data-name="Capa 1"><g class="cls-2"><rect class="cls-3" width="1143.77" height="1202.99"/></g><g class="cls-4"><rect class="cls-5" y="23.71" width="1143.77" height="1157.11"/></g></g></g></svg>