<?xml version="1.0" encoding="UTF-8"?>
<svg xmlns="http://www.w3.org/2000/svg" fill="none" height="145" viewBox="0 0 145 145" width="145">
  <circle cx="72.5" cy="72.5" fill="#11161c" r="72.5"></circle>
  <g fill="#fff">
    <path d="m55.7152 43.4567c0 2.5338-2.0566 4.587-4.5945 4.587-2.5378 0-4.6031-2.0532-4.6031-4.587 0-2.5337 2.0565-4.5869 4.6031-4.5869 2.5467 0 4.5945 2.0532 4.5945 4.5869z"></path>
    <path d="m90.5624 58.494-15.1047 21.7466s-.0875.0088-.07-.0349l10.309-30.143-11.6654-20.1478c-.175-.3058-.6039-.3058-.7789 0l-40.142 69.4163h13.5469l23.4184-40.5139c.035-.0612.1313-.0263.105.0436-1.969 5.2161-13.8182 40.4703-13.8182 40.4703h24.1272s9.4689-16.6966 10.9216-19.2041c.0263-.0525-3.1592 19.2041-3.1592 19.2041h25.9209z"></path>
  </g>
</svg>
